M48
; DRILL file {KiCad (5.1.8-0-10_14)} date Saturday, March 26, 2022 at 07:04:25 PM
; FORMAT={3:3/ absolute / metric / suppress trailing zeros}
; #@! TF.CreationDate,2022-03-26T19:04:25+09:00
; #@! TF.GenerationSoftware,Kicad,Pcbnew,(5.1.8-0-10_14)
; #@! TF.FileFunction,Plated,1,2,PTH
FMAT,2
METRIC,LZ
T1C0.750
T2C0.762
T3C0.800
T4C0.900
T5C1.000
T6C1.100
T7C1.200
T8C1.220
T9C2.000
%
G90
G05
T1
X073025Y-104775
X074295Y-104775
X075565Y-104775
T2
X089535Y-089535
X089535Y-092075
X089535Y-094615
T3
X081915Y-135255
X081915Y-137795
X121285Y-120015
X121285Y-127515
X078105Y-104775
X078105Y-107315
X128905Y-104775
X130905Y-104775
X062865Y-104775
X062865Y-107315
X126365Y-056515
X128905Y-056515
X065405Y-084455
X065405Y-086995
X075565Y-109855
X075565Y-112395
X103505Y-047625
X103505Y-050165
X103505Y-052705
X103505Y-055245
X103505Y-057785
X103505Y-060325
X103505Y-062865
X103505Y-065405
X103505Y-067945
X103505Y-070485
X103505Y-073025
X103505Y-075565
X118745Y-047625
X118745Y-050165
X118745Y-052705
X118745Y-055245
X118745Y-057785
X118745Y-060325
X118745Y-062865
X118745Y-065405
X118745Y-067945
X118745Y-070485
X118745Y-073025
X118745Y-075565
X131445Y-097155
X133445Y-097155
X108585Y-104775
X108585Y-112395
X111125Y-104775
X111125Y-112395
X113665Y-104775
X113665Y-112395
X116205Y-104775
X116205Y-112395
X118745Y-104775
X118745Y-112395
X121285Y-104775
X121285Y-112395
X123825Y-104775
X123825Y-112395
X070485Y-081915
X073025Y-081915
X070485Y-084455
X070485Y-086995
X12954Y-127675
X12954Y-130175
X100965Y-135255
X100965Y-137795
X073025Y-084455
X073025Y-091955
X131445Y-089535
X133445Y-089535
X103505Y-120015
X103505Y-127635
X106045Y-120015
X106045Y-127635
X108585Y-120015
X108585Y-127635
X111125Y-120015
X111125Y-127635
X113665Y-120015
X113665Y-127635
X116205Y-120015
X116205Y-127635
X118745Y-120015
X118745Y-127635
X118745Y-130175
X118745Y-132715
X128905Y-112395
X130905Y-112395
X108585Y-089535
X108585Y-097155
X111125Y-089535
X111125Y-097155
X113665Y-089535
X113665Y-097155
X116205Y-089535
X116205Y-097155
X118745Y-089535
X118745Y-097155
X121285Y-089535
X121285Y-097155
X123825Y-089535
X123825Y-097155
X126365Y-089535
X126365Y-097155
X075565Y-135255
X075565Y-137795
X062865Y-081915
X065405Y-081915
X062865Y-084455
X062865Y-091955
X12954Y-135295
X12954Y-137795
X070485Y-099695
X073025Y-099695
T4
X100965Y-130175
X108585Y-130175
X066675Y-104775
X069215Y-104775
X100965Y-132715
X108585Y-132715
X075565Y-125095
X075565Y-132715
X078105Y-125095
X078105Y-132715
T5
X080645Y-081915
X080645Y-084455
X080645Y-086995
X080645Y-089535
X080645Y-092075
X080645Y-094615
X080645Y-097155
X083185Y-081915
X083185Y-084455
X083185Y-086995
X083185Y-089535
X083185Y-092075
X083185Y-094615
X083185Y-097155
X074295Y-061595
X076835Y-061595
X079375Y-061595
X081915Y-061595
X131445Y-064135
X131445Y-066675
X131445Y-069215
X131445Y-071755
X131445Y-074295
X131445Y-076835
X131445Y-079375
X131445Y-081915
X133985Y-064135
X133985Y-066675
X133985Y-069215
X133985Y-071755
X133985Y-074295
X133985Y-076835
X133985Y-079375
X133985Y-081915
X106045Y-140335
X100965Y-081915
X100965Y-084455
X100965Y-086995
X100965Y-089535
X100965Y-092075
X100965Y-094615
X100965Y-097155
X103505Y-081915
X103505Y-084455
X103505Y-086995
X103505Y-089535
X103505Y-092075
X103505Y-094615
X103505Y-097155
X13716Y-127635
X13716Y-130175
X13716Y-132715
X13716Y-135255
X13716Y-137795
X1397Y-127635
X1397Y-130175
X1397Y-132715
X1397Y-135255
X1397Y-137795
X065405Y-078105
X067905Y-078105
X070405Y-078105
X121285Y-140335
X085785Y-117475
X088305Y-117475
X090825Y-117475
T6
X124945Y-046935
X124945Y-051435
X131445Y-046935
X131445Y-051435
T8
X088295Y-126235
X067975Y-126235
X067915Y-121415
T4
G00X087315Y-067945
M15
G01X089215Y-067945
M16
G05
G00X087315Y-073025
M15
G01X089215Y-073025
M16
G05
T7
G00X088695Y-129335
M15
G01X087895Y-129335
M16
G05
G00X088695Y-137635
M15
G01X087895Y-137635
M16
G05
G00X068375Y-129335
M15
G01X067575Y-129335
M16
G05
G00X068375Y-137635
M15
G01X067575Y-137635
M16
G05
G00X067515Y-110015
M15
G01X068315Y-110015
M16
G05
G00X067515Y-118315
M15
G01X068315Y-118315
M16
G05
T9
G00X062305Y-070855
M15
G01X062305Y-070355
M16
G05
G00X073505Y-070855
M15
G01X073505Y-070355
M16
G05
T0
M30
