G04 #@! TF.GenerationSoftware,KiCad,Pcbnew,(5.1.8-0-10_14)*
G04 #@! TF.CreationDate,2022-03-26T19:04:17+09:00*
G04 #@! TF.ProjectId,Quantizer,5175616e-7469-47a6-9572-2e6b69636164,rev?*
G04 #@! TF.SameCoordinates,Original*
G04 #@! TF.FileFunction,Soldermask,Bot*
G04 #@! TF.FilePolarity,Negative*
%FSLAX46Y46*%
G04 Gerber Fmt 4.6, Leading zero omitted, Abs format (unit mm)*
G04 Created by KiCad (PCBNEW (5.1.8-0-10_14)) date 2022-03-26 19:04:17*
%MOMM*%
%LPD*%
G01*
G04 APERTURE LIST*
%ADD10C,1.600000*%
%ADD11O,1.600000X1.600000*%
%ADD12R,1.800000X1.800000*%
%ADD13O,1.800000X1.800000*%
%ADD14C,1.800000*%
%ADD15O,2.500000X2.130000*%
%ADD16R,1.930000X1.830000*%
%ADD17O,1.050000X1.500000*%
%ADD18R,1.050000X1.500000*%
%ADD19R,2.500000X3.000000*%
%ADD20C,2.000000*%
%ADD21R,2.000000X2.000000*%
%ADD22O,3.300000X1.524000*%
%ADD23C,1.524000*%
%ADD24R,1.700000X1.700000*%
%ADD25O,1.700000X1.700000*%
%ADD26C,4.000000*%
%ADD27O,4.500000X1.524000*%
%ADD28R,1.600000X1.600000*%
%ADD29O,2.000000X1.200000*%
G04 APERTURE END LIST*
D10*
X73025000Y-84455000D03*
D11*
X73025000Y-91955000D03*
X62865000Y-91955000D03*
D10*
X62865000Y-84455000D03*
D12*
X75565000Y-125095000D03*
D13*
X75565000Y-132715000D03*
X78105000Y-125095000D03*
D12*
X78105000Y-132715000D03*
X66675000Y-104775000D03*
D14*
X69215000Y-104775000D03*
D15*
X67975000Y-129335000D03*
X67975000Y-137635000D03*
D16*
X67975000Y-126235000D03*
D15*
X67915000Y-118315000D03*
X67915000Y-110015000D03*
D16*
X67915000Y-121415000D03*
X88295000Y-126235000D03*
D15*
X88295000Y-137635000D03*
X88295000Y-129335000D03*
D17*
X74295000Y-104775000D03*
X75565000Y-104775000D03*
D18*
X73025000Y-104775000D03*
D19*
X73505000Y-70605000D03*
X62305000Y-70605000D03*
D20*
X70405000Y-78105000D03*
X67905000Y-78105000D03*
D21*
X65405000Y-78105000D03*
D22*
X88265000Y-67945000D03*
X88265000Y-73025000D03*
D23*
X81915000Y-61595000D03*
X79375000Y-61595000D03*
X76835000Y-61595000D03*
X74295000Y-61595000D03*
D10*
X73025000Y-81915000D03*
D11*
X70485000Y-81915000D03*
X65405000Y-81915000D03*
D10*
X62865000Y-81915000D03*
X75565000Y-135255000D03*
D11*
X75565000Y-137795000D03*
D10*
X70485000Y-86995000D03*
D11*
X70485000Y-84455000D03*
X65405000Y-84455000D03*
D10*
X65405000Y-86995000D03*
X81915000Y-137795000D03*
D11*
X81915000Y-135255000D03*
X62865000Y-104775000D03*
D10*
X62865000Y-107315000D03*
D11*
X75565000Y-112395000D03*
D10*
X75565000Y-109855000D03*
X78105000Y-107315000D03*
D11*
X78105000Y-104775000D03*
D10*
X70485000Y-99695000D03*
D11*
X73025000Y-99695000D03*
D24*
X80645000Y-81915000D03*
D25*
X83185000Y-81915000D03*
X80645000Y-84455000D03*
X83185000Y-84455000D03*
X80645000Y-86995000D03*
X83185000Y-86995000D03*
X80645000Y-89535000D03*
X83185000Y-89535000D03*
X80645000Y-92075000D03*
X83185000Y-92075000D03*
X80645000Y-94615000D03*
X83185000Y-94615000D03*
X80645000Y-97155000D03*
X83185000Y-97155000D03*
D14*
X90825000Y-117475000D03*
X88305000Y-117475000D03*
X85785000Y-117475000D03*
D26*
X83555000Y-109975000D03*
X93055000Y-109975000D03*
D23*
X89535000Y-89535000D03*
X89535000Y-92075000D03*
X89535000Y-94615000D03*
D27*
X88265000Y-97155000D03*
X88265000Y-86995000D03*
D10*
X133445000Y-89535000D03*
D28*
X131445000Y-89535000D03*
X131445000Y-97155000D03*
D10*
X133445000Y-97155000D03*
X130905000Y-112395000D03*
D28*
X128905000Y-112395000D03*
X128905000Y-104775000D03*
D10*
X130905000Y-104775000D03*
X121285000Y-120015000D03*
D11*
X121285000Y-127515000D03*
D28*
X129540000Y-137795000D03*
D10*
X129540000Y-135295000D03*
X129540000Y-127675000D03*
D28*
X129540000Y-130175000D03*
D12*
X100965000Y-130175000D03*
D13*
X108585000Y-130175000D03*
X108585000Y-132715000D03*
D12*
X100965000Y-132715000D03*
D24*
X106045000Y-140335000D03*
X121285000Y-140335000D03*
X131445000Y-64135000D03*
D25*
X133985000Y-64135000D03*
X131445000Y-66675000D03*
X133985000Y-66675000D03*
X131445000Y-69215000D03*
X133985000Y-69215000D03*
X131445000Y-71755000D03*
X133985000Y-71755000D03*
X131445000Y-74295000D03*
X133985000Y-74295000D03*
X131445000Y-76835000D03*
X133985000Y-76835000D03*
X131445000Y-79375000D03*
X133985000Y-79375000D03*
X131445000Y-81915000D03*
X133985000Y-81915000D03*
D24*
X137160000Y-127635000D03*
D25*
X139700000Y-127635000D03*
X137160000Y-130175000D03*
X139700000Y-130175000D03*
X137160000Y-132715000D03*
X139700000Y-132715000D03*
X137160000Y-135255000D03*
X139700000Y-135255000D03*
X137160000Y-137795000D03*
X139700000Y-137795000D03*
D11*
X100965000Y-137795000D03*
D10*
X100965000Y-135255000D03*
X118745000Y-132715000D03*
D11*
X118745000Y-130175000D03*
D10*
X126365000Y-56515000D03*
D11*
X128905000Y-56515000D03*
D20*
X131445000Y-46935000D03*
X131445000Y-51435000D03*
X124945000Y-46935000D03*
X124945000Y-51435000D03*
D28*
X126365000Y-89535000D03*
D11*
X108585000Y-97155000D03*
X123825000Y-89535000D03*
X111125000Y-97155000D03*
X121285000Y-89535000D03*
X113665000Y-97155000D03*
X118745000Y-89535000D03*
X116205000Y-97155000D03*
X116205000Y-89535000D03*
X118745000Y-97155000D03*
X113665000Y-89535000D03*
X121285000Y-97155000D03*
X111125000Y-89535000D03*
X123825000Y-97155000D03*
X108585000Y-89535000D03*
X126365000Y-97155000D03*
D29*
X118745000Y-47625000D03*
X103505000Y-47625000D03*
X118745000Y-50165000D03*
X103505000Y-50165000D03*
X118745000Y-52705000D03*
X103505000Y-52705000D03*
X118745000Y-55245000D03*
X103505000Y-55245000D03*
X118745000Y-57785000D03*
X103505000Y-57785000D03*
X118745000Y-60325000D03*
X103505000Y-60325000D03*
X118745000Y-62865000D03*
X103505000Y-62865000D03*
X118745000Y-65405000D03*
X103505000Y-65405000D03*
X118745000Y-67945000D03*
X103505000Y-67945000D03*
X118745000Y-70485000D03*
X103505000Y-70485000D03*
X118745000Y-73025000D03*
X103505000Y-73025000D03*
X118745000Y-75565000D03*
X103505000Y-75565000D03*
D11*
X123825000Y-112395000D03*
X108585000Y-104775000D03*
X121285000Y-112395000D03*
X111125000Y-104775000D03*
X118745000Y-112395000D03*
X113665000Y-104775000D03*
X116205000Y-112395000D03*
X116205000Y-104775000D03*
X113665000Y-112395000D03*
X118745000Y-104775000D03*
X111125000Y-112395000D03*
X121285000Y-104775000D03*
X108585000Y-112395000D03*
D28*
X123825000Y-104775000D03*
X118745000Y-120015000D03*
D11*
X103505000Y-127635000D03*
X116205000Y-120015000D03*
X106045000Y-127635000D03*
X113665000Y-120015000D03*
X108585000Y-127635000D03*
X111125000Y-120015000D03*
X111125000Y-127635000D03*
X108585000Y-120015000D03*
X113665000Y-127635000D03*
X106045000Y-120015000D03*
X116205000Y-127635000D03*
X103505000Y-120015000D03*
X118745000Y-127635000D03*
D24*
X100965000Y-81915000D03*
D25*
X103505000Y-81915000D03*
X100965000Y-84455000D03*
X103505000Y-84455000D03*
X100965000Y-86995000D03*
X103505000Y-86995000D03*
X100965000Y-89535000D03*
X103505000Y-89535000D03*
X100965000Y-92075000D03*
X103505000Y-92075000D03*
X100965000Y-94615000D03*
X103505000Y-94615000D03*
X100965000Y-97155000D03*
X103505000Y-97155000D03*
M02*
